<svg width="64" height="83" viewBox="0 0 64 83" fill="none" xmlns="http://www.w3.org/2000/svg">
<path d="M61.92 43.4162C55.64 27.0962 33.28 26.2162 38.68 2.49619C39.08 0.736186 37.2 -0.623813 35.68 0.296187C21.16 8.85619 10.72 26.0162 19.48 48.4962C20.2 50.3362 18.04 52.0562 16.48 50.8562C9.24 45.3762 8.48 37.4962 9.12 31.8562C9.36 29.7762 6.64 28.7762 5.48 30.4962C2.76 34.6562 0 41.3762 0 51.4962C1.52 73.8962 20.44 80.7762 27.24 81.6562C36.96 82.8962 47.48 81.0962 55.04 74.1762C63.36 66.4562 66.4 54.1362 61.92 43.4162ZM24.8 63.5362C30.56 62.1362 33.52 57.9762 34.32 54.2962C35.64 48.5762 30.48 42.9762 33.96 33.9362C35.28 41.4162 47.04 46.0962 47.04 54.2562C47.36 64.3762 36.4 73.0562 24.8 63.5362Z" fill="url(#paint0_linear_15_21)"/>
<defs>
<linearGradient id="paint0_linear_15_21" x1="31.9926" y1="-2.62616e-07" x2="31.9926" y2="82.0195" gradientUnits="userSpaceOnUse">
<stop offset="0.440388" stop-color="#F3B105"/>
<stop offset="0.819843" stop-color="#EA6607"/>
</linearGradient>
</defs>
</svg>
