<svg width="309" height="83" viewBox="0 0 309 83" fill="none" xmlns="http://www.w3.org/2000/svg">
<path d="M98.52 60.184H109.464V67H89.4L98.52 60.184ZM71.4 49.384C71.4 46.952 71.864 44.648 72.792 42.472C73.72 40.296 75 38.376 76.632 36.712C78.296 35.016 80.216 33.688 82.392 32.728C84.568 31.768 86.904 31.288 89.4 31.288C91.864 31.288 94.184 31.768 96.36 32.728C98.536 33.688 100.456 35.016 102.12 36.712C103.816 38.376 105.128 40.296 106.056 42.472C107.016 44.648 107.496 46.952 107.496 49.384C107.496 51.88 107.016 54.216 106.056 56.392C105.128 58.568 103.816 60.488 102.12 62.152C100.456 63.784 98.536 65.064 96.36 65.992C94.184 66.92 91.864 67.384 89.4 67.384C86.904 67.384 84.568 66.92 82.392 65.992C80.216 65.064 78.296 63.784 76.632 62.152C75 60.488 73.72 58.568 72.792 56.392C71.864 54.216 71.4 51.88 71.4 49.384ZM78.6 49.384C78.6 50.92 78.872 52.376 79.416 53.752C79.992 55.096 80.776 56.296 81.768 57.352C82.792 58.376 83.96 59.176 85.272 59.752C86.616 60.328 88.072 60.616 89.64 60.616C91.144 60.616 92.536 60.328 93.816 59.752C95.128 59.176 96.264 58.376 97.224 57.352C98.184 56.328 98.936 55.144 99.48 53.8C100.024 52.424 100.296 50.952 100.296 49.384C100.296 47.848 100.008 46.408 99.432 45.064C98.888 43.688 98.12 42.488 97.128 41.464C96.168 40.44 95.032 39.64 93.72 39.064C92.408 38.488 90.984 38.2 89.448 38.2C87.912 38.2 86.488 38.488 85.176 39.064C83.864 39.64 82.712 40.44 81.72 41.464C80.728 42.488 79.96 43.688 79.416 45.064C78.872 46.408 78.6 47.848 78.6 49.384Z" fill="url(#paint0_linear_15_26)"/>
<path d="M120.148 68.008C118.26 68.008 116.676 67.432 115.396 66.28C114.116 65.096 113.444 63.576 113.38 61.72V46.024H120.1V59.224C120.164 60.152 120.404 60.904 120.82 61.48C121.236 62.024 121.94 62.296 122.932 62.296C123.924 62.296 124.772 61.96 125.476 61.288C126.212 60.616 126.772 59.704 127.156 58.552C127.572 57.368 127.78 56.04 127.78 54.568V46.024H134.5V67H128.404L127.876 63.16L127.972 63.592C127.492 64.456 126.884 65.224 126.148 65.896C125.412 66.568 124.532 67.08 123.508 67.432C122.516 67.816 121.396 68.008 120.148 68.008Z" fill="url(#paint1_linear_15_26)"/>
<path d="M139.491 46.024H146.211V67H139.491V46.024ZM139.347 38.584C139.347 37.592 139.731 36.776 140.499 36.136C141.299 35.496 142.147 35.176 143.043 35.176C143.939 35.176 144.755 35.496 145.491 36.136C146.259 36.776 146.643 37.592 146.643 38.584C146.643 39.576 146.259 40.392 145.491 41.032C144.755 41.64 143.939 41.944 143.043 41.944C142.147 41.944 141.299 41.64 140.499 41.032C139.731 40.392 139.347 39.576 139.347 38.584Z" fill="url(#paint2_linear_15_26)"/>
<path d="M169.02 65.128C168.092 65.864 166.924 66.456 165.516 66.904C164.14 67.352 162.78 67.576 161.436 67.576C159.036 67.576 156.94 67.144 155.148 66.28C153.388 65.384 152.012 64.12 151.02 62.488C150.06 60.824 149.58 58.824 149.58 56.488C149.58 54.152 150.108 52.168 151.164 50.536C152.22 48.872 153.596 47.608 155.292 46.744C157.02 45.88 158.828 45.448 160.716 45.448C162.604 45.448 164.236 45.704 165.612 46.216C167.02 46.728 168.22 47.4 169.212 48.232L165.948 52.552C165.5 52.2 164.876 51.848 164.076 51.496C163.308 51.112 162.396 50.92 161.34 50.92C160.412 50.92 159.564 51.16 158.796 51.64C158.028 52.12 157.42 52.776 156.972 53.608C156.524 54.44 156.3 55.4 156.3 56.488C156.3 57.512 156.54 58.456 157.02 59.32C157.5 60.184 158.156 60.872 158.988 61.384C159.852 61.864 160.86 62.104 162.012 62.104C162.748 62.104 163.42 62.008 164.028 61.816C164.668 61.592 165.212 61.288 165.66 60.904L169.02 65.128Z" fill="url(#paint3_linear_15_26)"/>
<path d="M172.26 67V29.128H178.98V67H172.26ZM184.308 52.744L193.812 67H185.988L179.892 56.584L184.308 52.744ZM176.964 61.192L176.292 54.808L188.964 45.496L193.044 49.096L176.964 61.192Z" fill="url(#paint4_linear_15_26)"/>
<path d="M242.969 68.44L216.185 44.248L218.249 45.4L218.393 67H211.337V30.28H211.625L237.833 54.376L236.297 53.704L236.153 31.672H243.161V68.44H242.969Z" fill="url(#paint5_linear_15_26)"/>
<path d="M251.251 67V51.88H247.699V45.928H251.251V38.632C251.251 35.88 252.035 33.64 253.603 31.912C255.203 30.152 257.507 29.272 260.515 29.272C261.411 29.272 262.403 29.416 263.491 29.704C264.611 29.96 265.587 30.392 266.419 31L263.587 35.848C263.267 35.432 262.883 35.16 262.435 35.032C262.019 34.872 261.619 34.792 261.235 34.792C260.275 34.792 259.491 35.112 258.883 35.752C258.275 36.392 257.971 37.416 257.971 38.824V45.928H264.307V51.88H257.971V67H251.251Z" fill="url(#paint6_linear_15_26)"/>
<path d="M270.142 36.808H276.862V45.928H281.95V51.16H276.862V67H270.142V51.16H266.878V45.928H270.142V36.808Z" fill="url(#paint7_linear_15_26)"/>
<path d="M286.105 40.168L282.649 38.824C283.353 38.184 283.929 37.256 284.377 36.04C284.825 34.824 284.937 33.656 284.713 32.536L289.849 32.2C290.041 33.096 289.961 34.088 289.609 35.176C289.289 36.264 288.809 37.256 288.169 38.152C287.561 39.048 286.873 39.72 286.105 40.168Z" fill="url(#paint8_linear_15_26)"/>
<path d="M299.509 67.432C297.781 67.432 296.165 67.128 294.661 66.52C293.189 65.912 291.942 65.064 290.918 63.976L293.702 60.28C294.726 61.208 295.67 61.88 296.534 62.296C297.43 62.68 298.23 62.872 298.934 62.872C299.478 62.872 299.958 62.824 300.374 62.728C300.822 62.6 301.174 62.424 301.43 62.2C301.686 61.944 301.814 61.624 301.814 61.24C301.814 60.696 301.59 60.264 301.142 59.944C300.726 59.624 300.181 59.368 299.509 59.176C298.837 58.952 298.118 58.728 297.35 58.504C295.43 57.896 294.037 57.016 293.173 55.864C292.341 54.68 291.926 53.4 291.926 52.024C291.926 50.968 292.198 49.912 292.742 48.856C293.318 47.768 294.214 46.872 295.43 46.168C296.678 45.432 298.277 45.064 300.229 45.064C301.989 45.064 303.478 45.24 304.694 45.592C305.91 45.944 307.062 46.52 308.15 47.32L305.605 51.256C304.997 50.776 304.31 50.376 303.542 50.056C302.806 49.704 302.118 49.512 301.478 49.48C300.902 49.448 300.406 49.512 299.99 49.672C299.606 49.832 299.302 50.04 299.078 50.296C298.854 50.552 298.742 50.824 298.742 51.112C298.71 51.72 298.934 52.2 299.414 52.552C299.926 52.904 300.565 53.176 301.333 53.368C302.101 53.56 302.854 53.784 303.59 54.04C304.614 54.36 305.493 54.792 306.229 55.336C306.965 55.88 307.526 56.536 307.91 57.304C308.326 58.04 308.534 58.936 308.534 59.992C308.534 61.272 308.198 62.488 307.526 63.64C306.886 64.76 305.894 65.672 304.549 66.376C303.238 67.08 301.557 67.432 299.509 67.432Z" fill="url(#paint9_linear_15_26)"/>
<path d="M61.92 43.4162C55.64 27.0962 33.28 26.2162 38.68 2.49619C39.08 0.736186 37.2 -0.623813 35.68 0.296187C21.16 8.85619 10.72 26.0162 19.48 48.4962C20.2 50.3362 18.04 52.0562 16.48 50.8562C9.24 45.3762 8.48 37.4962 9.12 31.8562C9.36 29.7762 6.64 28.7762 5.48 30.4962C2.76 34.6562 0 41.3762 0 51.4962C1.52 73.8962 20.44 80.7762 27.24 81.6562C36.96 82.8962 47.48 81.0962 55.04 74.1762C63.36 66.4562 66.4 54.1362 61.92 43.4162ZM24.8 63.5362C30.56 62.1362 33.52 57.9762 34.32 54.2962C35.64 48.5762 30.48 42.9762 33.96 33.9362C35.28 41.4162 47.04 46.0962 47.04 54.2562C47.36 64.3762 36.4 73.0562 24.8 63.5362Z" fill="url(#paint10_linear_15_26)"/>
<defs>
<linearGradient id="paint0_linear_15_26" x1="154.267" y1="0" x2="154.267" y2="82.0195" gradientUnits="userSpaceOnUse">
<stop offset="0.427083" stop-color="#F3B105"/>
<stop offset="1" stop-color="#EA6607"/>
</linearGradient>
<linearGradient id="paint1_linear_15_26" x1="154.267" y1="0" x2="154.267" y2="82.0195" gradientUnits="userSpaceOnUse">
<stop offset="0.427083" stop-color="#F3B105"/>
<stop offset="1" stop-color="#EA6607"/>
</linearGradient>
<linearGradient id="paint2_linear_15_26" x1="154.267" y1="0" x2="154.267" y2="82.0195" gradientUnits="userSpaceOnUse">
<stop offset="0.427083" stop-color="#F3B105"/>
<stop offset="1" stop-color="#EA6607"/>
</linearGradient>
<linearGradient id="paint3_linear_15_26" x1="154.267" y1="0" x2="154.267" y2="82.0195" gradientUnits="userSpaceOnUse">
<stop offset="0.427083" stop-color="#F3B105"/>
<stop offset="1" stop-color="#EA6607"/>
</linearGradient>
<linearGradient id="paint4_linear_15_26" x1="154.267" y1="0" x2="154.267" y2="82.0195" gradientUnits="userSpaceOnUse">
<stop offset="0.427083" stop-color="#F3B105"/>
<stop offset="1" stop-color="#EA6607"/>
</linearGradient>
<linearGradient id="paint5_linear_15_26" x1="154.267" y1="0" x2="154.267" y2="82.0195" gradientUnits="userSpaceOnUse">
<stop offset="0.427083" stop-color="#F3B105"/>
<stop offset="1" stop-color="#EA6607"/>
</linearGradient>
<linearGradient id="paint6_linear_15_26" x1="154.267" y1="0" x2="154.267" y2="82.0195" gradientUnits="userSpaceOnUse">
<stop offset="0.427083" stop-color="#F3B105"/>
<stop offset="1" stop-color="#EA6607"/>
</linearGradient>
<linearGradient id="paint7_linear_15_26" x1="154.267" y1="0" x2="154.267" y2="82.0195" gradientUnits="userSpaceOnUse">
<stop offset="0.427083" stop-color="#F3B105"/>
<stop offset="1" stop-color="#EA6607"/>
</linearGradient>
<linearGradient id="paint8_linear_15_26" x1="154.267" y1="0" x2="154.267" y2="82.0195" gradientUnits="userSpaceOnUse">
<stop offset="0.427083" stop-color="#F3B105"/>
<stop offset="1" stop-color="#EA6607"/>
</linearGradient>
<linearGradient id="paint9_linear_15_26" x1="154.267" y1="0" x2="154.267" y2="82.0195" gradientUnits="userSpaceOnUse">
<stop offset="0.427083" stop-color="#F3B105"/>
<stop offset="1" stop-color="#EA6607"/>
</linearGradient>
<linearGradient id="paint10_linear_15_26" x1="31.9926" y1="-2.62616e-07" x2="31.9926" y2="82.0195" gradientUnits="userSpaceOnUse">
<stop offset="0.440388" stop-color="#F3B105"/>
<stop offset="0.819843" stop-color="#EA6607"/>
</linearGradient>
</defs>
</svg>
